<?xml version="1.0" standalone="no"?>
<!DOCTYPE svg PUBLIC "-//W3C//DTD SVG 20010904//EN"
 "http://www.w3.org/TR/2001/REC-SVG-20010904/DTD/svg10.dtd">
<svg version="1.0" xmlns="http://www.w3.org/2000/svg"
 width="375.000000pt" height="456.000000pt" viewBox="0 0 375.000000 456.000000"
 preserveAspectRatio="xMidYMid meet">

<g transform="translate(0.000000,456.000000) scale(0.100000,-0.100000)"
fill="#000000" stroke="none">
<path d="M2465 4460 c-88 -14 -160 -37 -253 -81 -149 -69 -248 -152 -402 -336
-45 -53 -95 -107 -112 -119 -39 -30 -149 -63 -240 -72 l-73 -8 45 -15 c25 -7
81 -14 125 -14 72 0 86 4 143 34 35 19 72 46 83 59 11 14 22 22 26 18 4 -4 5
-105 3 -224 -3 -119 -4 -561 -3 -982 l2 -765 -599 2 c-390 2 -614 6 -640 13
-53 14 -115 74 -129 125 -7 26 -11 183 -11 450 -1 226 -5 475 -10 555 -5 80
-13 235 -16 345 -9 258 0 245 -181 244 -158 -2 -233 -16 -92 -18 107 -1 186
-20 215 -52 18 -20 19 -47 19 -845 l0 -824 -97 0 c-54 0 -98 -4 -98 -9 0 -12
29 -18 121 -26 l76 -7 7 -902 c6 -836 8 -902 24 -914 20 -15 429 -16 453 -1 9
6 -8 9 -46 9 -110 0 -203 35 -242 89 -20 30 -81 277 -99 407 -14 96 -18 229
-21 691 -4 568 -4 572 16 592 21 21 29 21 533 22 282 0 581 4 663 8 83 5 151
8 151 7 3 -3 14 -1205 14 -1503 l0 -333 36 0 35 0 -7 1127 -7 1128 71 -66 c90
-83 195 -154 291 -196 l76 -32 3 -103 c1 -57 6 -470 10 -919 l7 -815 30 -59
c25 -49 39 -63 80 -84 49 -26 54 -26 305 -29 261 -4 422 4 385 18 -11 4 -63
16 -115 25 -261 46 -379 77 -453 119 -69 39 -74 45 -111 119 -32 65 -40 94
-47 165 -7 87 -14 727 -24 2197 -3 424 -8 820 -11 882 -5 102 -8 112 -27 117
-11 3 -25 2 -30 -1 -6 -4 -8 -268 -6 -712 4 -659 3 -708 -14 -738 -34 -64 -75
-68 -161 -16 -70 43 -241 207 -256 247 -6 17 -10 173 -10 409 0 210 -5 497
-10 637 -17 474 -18 463 16 511 16 24 58 73 94 109 168 172 361 263 585 276
90 5 108 3 181 -20 161 -51 428 -264 557 -443 95 -131 187 -341 233 -530 24
-98 26 -120 21 -243 -9 -202 -46 -350 -134 -529 -110 -223 -297 -408 -505
-498 -102 -44 -242 -75 -346 -77 l-84 -1 43 -12 c120 -35 292 -23 418 29 215
90 415 285 535 523 95 189 135 355 143 590 6 191 -13 339 -62 490 -130 396
-424 692 -765 769 -90 21 -245 28 -325 16z"/>
</g>
</svg>
